<?xml version="1.0" encoding="UTF-8"?>
<svg width="512" height="512" viewBox="0 0 512 512" fill="none" xmlns="http://www.w3.org/2000/svg">
  <path d="M256 0C114.6 0 0 114.6 0 256C0 397.4 114.6 512 256 512C397.4 512 512 397.4 512 256C512 114.6 397.4 0 256 0ZM256 464C141.1 464 48 370.9 48 256C48 141.1 141.1 48 256 48C370.9 48 464 141.1 464 256C464 370.9 370.9 464 256 464Z" fill="#478CBF"/>
  <path d="M256 96C167.6 96 96 167.6 96 256C96 344.4 167.6 416 256 416C344.4 416 416 344.4 416 256C416 167.6 344.4 96 256 96ZM256 368C185.3 368 128 310.7 128 240C128 169.3 185.3 112 256 112C326.7 112 384 169.3 384 240C384 310.7 326.7 368 256 368Z" fill="#478CBF"/>
  <path d="M256 144C203.1 144 160 187.1 160 240C160 292.9 203.1 336 256 336C308.9 336 352 292.9 352 240C352 187.1 308.9 144 256 144ZM256 304C225.1 304 200 278.9 200 248C200 217.1 225.1 192 256 192C286.9 192 312 217.1 312 248C312 278.9 286.9 304 256 304Z" fill="#478CBF"/>
  <path d="M256 192C225.1 192 200 217.1 200 248C200 278.9 225.1 304 256 304C286.9 304 312 278.9 312 248C312 217.1 286.9 192 256 192Z" fill="#478CBF"/>
</svg> 